<?xml version="1.0" encoding="UTF-8"?>
<svg version="1.1" xmlns="http://www.w3.org/2000/svg" width="374" height="374">
<path d="M0 0 C0.81449615 -0.00979385 1.62899231 -0.01958771 2.46817017 -0.02967834 C20.09281652 -0.19798797 37.08588597 -0.12432507 54.27734375 4.23828125 C55.16325195 4.45258789 56.04916016 4.66689453 56.96191406 4.88769531 C69.69683261 8.01788817 81.52600373 12.44451132 93.27734375 18.23828125 C94.004375 18.59293457 94.73140625 18.94758789 95.48046875 19.31298828 C105.79518704 24.39490733 115.15904971 30.24536918 124.27734375 37.23828125 C125.15003906 37.88667969 126.02273438 38.53507812 126.921875 39.203125 C142.05943245 50.94577709 155.66082054 65.30109396 166.27734375 81.23828125 C166.67566406 81.83495605 167.07398438 82.43163086 167.484375 83.04638672 C185.398144 110.37387128 197.64825761 143.83352493 197.33984375 176.73828125 C197.31921875 179.87328125 197.29859375 183.00828125 197.27734375 186.23828125 C190.01734375 186.23828125 182.75734375 186.23828125 175.27734375 186.23828125 C174.11148206 183.90655788 174.04865735 182.27909786 173.8828125 179.6796875 C171.08328155 140.07264825 157.66163046 103.58474624 129.68505859 74.70166016 C128.28499897 73.24623917 126.915434 71.76626129 125.546875 70.28125 C97.93866422 40.86274388 56.75944111 24.95053092 16.88793945 23.25927734 C-26.15174446 22.28389777 -68.12022889 37.41576773 -99.73828125 66.82421875 C-113.89461529 80.40206862 -124.7334876 94.85459199 -133.72265625 112.23828125 C-134.2019458 113.15794678 -134.2019458 113.15794678 -134.69091797 114.09619141 C-153.85230474 151.38727502 -156.27416352 195.33287799 -144.19213867 235.16625977 C-136.57381493 258.81548583 -124.40365548 279.9419183 -107.13037109 297.77490234 C-105.73031147 299.23032333 -104.3607465 300.71030121 -102.9921875 302.1953125 C-78.40221246 328.39767443 -44.04745756 342.59591723 -9.04248047 347.88452148 C-6.2648434 348.30809506 -3.49417433 348.77636157 -0.72265625 349.23828125 C-0.72265625 356.82828125 -0.72265625 364.41828125 -0.72265625 372.23828125 C-35.2638448 371.25139015 -69.99166582 358.8306824 -97.72265625 338.23828125 C-98.26792969 337.84946777 -98.81320313 337.4606543 -99.375 337.06005859 C-116.6201713 324.75004955 -132.0179581 308.88536462 -143.72265625 291.23828125 C-144.31796143 290.34544434 -144.31796143 290.34544434 -144.92529297 289.43457031 C-162.50563736 262.61958618 -174.7484305 229.67700085 -174.92578125 197.375 C-174.93148132 196.54353958 -174.9371814 195.71207916 -174.9430542 194.85542297 C-174.95245109 193.09983569 -174.95901689 191.3442312 -174.96289062 189.58862305 C-174.97249095 186.97085478 -175.00352086 184.35390927 -175.03515625 181.73632812 C-175.13819789 165.60388994 -173.01478291 150.19476613 -168.53515625 134.67578125 C-168.23399902 133.62132812 -167.9328418 132.566875 -167.62255859 131.48046875 C-164.810206 121.9701814 -161.15530954 113.09537922 -156.72265625 104.23828125 C-156.36945313 103.51705078 -156.01625 102.79582031 -155.65234375 102.05273438 C-150.56898651 91.7305935 -144.72011208 82.36250005 -137.72265625 73.23828125 C-137.07425781 72.36558594 -136.42585938 71.49289063 -135.7578125 70.59375 C-124.01516041 55.45619255 -109.65984354 41.85480446 -93.72265625 31.23828125 C-93.12598145 30.83996094 -92.52930664 30.44164063 -91.91455078 30.03125 C-65.10385467 12.45624723 -32.2787621 0.32157823 0 0 Z " fill="#FFFFFF" transform="translate(174.72265625,0.76171875)"/>
<path d="M0 0 C6.93 0 13.86 0 21 0 C21 71.94 21 143.88 21 218 C14.07 218 7.14 218 0 218 C0 146.06 0 74.12 0 0 Z " fill="#FFFFFF" transform="translate(195,154)"/>
</svg>
